PathFileType	4	(X/Y/Z)	C:/Users/beibeiliu/ov580/test_trc/User3\sequence.20_training_dense_left.trc
DataRate	CameraRate	NumFrames	NumMarkers	Units	OrigDataRate	OrigDataStartFrame	OrigNumFrames
120	120	11	19	mm	120	49	72
Frame#	Time	ThumbCMC			ThumbMCP			ThumbIP			ThumbTip			IndexMCP			IndexPIP			IndexTip			MiddleMCP			MiddlePIP			MiddleTip			RingMCP			RingPIP			RingTip			PinkyMCP			PinkyPIP			PinkyTip			BackHand1			BackHand2			BackHand3	
		X0	Y0	Z0	X1	Y1	Z1	X2	Y2	Z2	X3	Y3	Z3	X4	Y4	Z4	X5	Y5	Z5	X6	Y6	Z6	X7	Y7	Z7	X8	Y8	Z8	X9	Y9	Z9	X10	Y10	Z10	X11	Y11	Z11	X12	Y12	Z12	X13	Y13	Z13	X14	Y14	Z14	X15	Y15	Z15	X16	Y16	Z16	X17	Y17	Z17	X18	Y18	Z18	
48	0.4	-178.544	24.4938	12.0585	-179.983	20.5081	-23.816	-202.244	10.8303	-49.4014	-225.939	-2.84501	-36.934	-209.756	62.8484	-47.3472	-208.422	72.4273	-70.5984	-208.031	81.5989	-94.1008	-239.404	53.956	-44.4332	-243.389	68.1738	-71.6148	-248.952	78.6338	-101.633	-251.615	36.0167	-37.432	-267.878	43.2061	-57.9925	-276.28	53.7598	-83.0491	-265.943	10.9598	-26.0306	-279.051	12.2539	-42.9497	-291.97	12.8643	-55.5931	-242.247	26.5516	11.6399	-235.958	21.9174	34.7498	-213.694	41.3837	20.5299	
49	0.408333	-159.94	20.949	5.83537	-163.279	14.9922	-25.2835	-186.909	9.26593	-47.4654	-214.953	2.20068	-40.8404	-181.804	60.169	-55.3629	-175.475	66.5509	-79.4146	-172.607	72.785	-100.909	-211.298	61.2759	-51.4968	-214.718	70.4416	-77.1616	-220.818	81.1377	-108.575	-232.062	47.9379	-42.2683	-239.744	57.9594	-64.0852	-250.855	66.637	-84.9286	-242.658	26.6863	-25.7782	-257.75	31.4348	-43.7833	-277.916	36.6075	-57.7776	-222.227	40.7275	5.05951	-214.973	33.2558	32.4585	-189.324	46.1377	14.5419	
50	0.416667	-145.418	7.43329	8.69533	-148.645	-0.185301	-28.0645	-172.584	-4.61179	-47.4601	-202.099	-6.213	-44.7059	-157.699	39.8463	-58.6447	-155.863	43.9192	-87.8028	-149.02	44.7645	-109.287	-187.952	48.0019	-60.2052	-189.411	55.1574	-87.4206	-192.385	61.0882	-115.674	-208.231	41.4396	-48.173	-218.14	50.214	-72.7478	-224.57	58.5347	-97.7479	-228.921	27.5725	-33.5426	-242.319	31.2321	-46.3102	-253.195	39.0127	-62.7837	-201.395	39.0082	0.571706	-199.966	37.2397	26.8807	-169.281	40.804	7.87229	
51	0.425	-135.591	-7.81124	8.74694	-137.872	-24.2031	-26.159	-164.896	-26.2004	-43.753	-195.462	-21.0817	-39.6038	-146.224	12.8378	-67.1545	-141.717	7.53849	-93.1696	-140.118	1.61476	-119.265	-171.645	23.4157	-67.8982	-169.701	24.2805	-93.1976	-175.492	25.7572	-129.633	-191.316	22.554	-57.3837	-197.755	26.8905	-81.9337	-207.948	29.9521	-104.209	-216.867	14.5863	-35.6392	-228.422	17.5034	-56.7364	-237.809	20.7654	-74.2464	-185.486	28.6224	-8.99221	-186.978	31.3786	20.5212	-152.236	28.3749	-0.264544	
52	0.433333	-134.681	-19.6889	10.3217	-135.001	-42.919	-14.3599	-164.381	-49.615	-39.294	-190.038	-41.5852	-31.0659	-143.597	-19.5186	-65.1003	-140.046	-32.4861	-88.7313	-140.175	-47.9345	-111.717	-167.058	-7.887	-73.5375	-163.844	-14.8661	-95.1715	-164.574	-25.6672	-126.923	-189.572	-4.52953	-57.1302	-191.197	-7.33898	-83.2271	-200.281	-9.8628	-108.889	-211.076	-5.81359	-38.6232	-222.328	-8.17815	-59.0497	-236.156	-5.69571	-77.7094	-178.587	11.74	-14.6452	-179.275	25.2725	15.9613	-145.422	11.4909	-6.41052	
53	0.441667	-130.925	-28.9124	20.4255	-133.381	-58.3991	-3.99539	-158.982	-72.7258	-21.6821	-183.953	-64.2681	-16.967	-141.088	-49.967	-53.9679	-137.126	-71.2756	-73.0557	-135.612	-89.6018	-87.2549	-161.084	-43.7231	-65.0889	-163.003	-58.2996	-87.2983	-165.306	-76.2937	-110.962	-182.608	-35.6263	-54.5764	-190.456	-44.6085	-74.4718	-194.608	-55.2816	-96.7091	-205.789	-29.9733	-35.1639	-217.2	-38.8127	-53.3313	-229.826	-43.4249	-70.1731	-179.62	-0.819643	-13.0087	-176.981	14.0599	8.78145	-143.294	-3.70854	-6.73582	
54	0.45	-131.215	-28.2477	23.0499	-128.1	-58.2282	12.7621	-147.987	-82.3092	-1.964	-174.736	-79.861	-0.645515	-137.111	-68.4355	-39.5459	-129.812	-94.7971	-52.8651	-126.559	-113.91	-60.2016	-162.879	-66.4083	-49.8575	-157.523	-90.3151	-66.3042	-155.581	-114.5	-84.2002	-184.862	-59.5477	-41.0414	-188.741	-77.8613	-60.6682	-188.521	-95.6398	-76.3531	-205.184	-54.2503	-27.3165	-213.376	-67.9592	-40.2857	-221.907	-83.2187	-54.5933	-182.619	-16.5623	-13.2626	-185.015	4.53853	8.39446	-147.686	-10.8958	-2.70983	
55	0.458333	-134.442	-14.3769	27.3782	-121.36	-46.5442	19.3436	-135.835	-72.1882	11.1948	-162.371	-83.3229	10.6599	-128.056	-64.2225	-27.7911	-115.314	-89.7479	-34.8481	-106.025	-111.565	-41.0648	-148.547	-72.2284	-36.5588	-138.915	-96.5242	-48.1224	-135.08	-121.344	-58.0591	-170.463	-67.7788	-28.7671	-170.351	-93.5243	-45.7016	-167.124	-112.998	-56.3034	-195.218	-66.632	-15.5919	-195.223	-83.5272	-25.5057	-202.061	-107.743	-38.5442	-180.589	-22.9594	-8.07437	-187.649	-0.614555	5.84816	-153.754	-3.35891	-2.07082	
56	0.466667	-135.886	9.97717	21.2968	-114.224	-17.4405	16.8627	-118.845	-49.8658	10.9557	-140.604	-66.5961	14.091	-114.03	-39.3825	-30.5737	-95.2668	-57.2367	-35.4081	-80.1936	-74.3783	-40.0841	-132.33	-56.3637	-36.2749	-116.996	-78.2881	-44.3499	-101.88	-102.854	-52.7812	-154.578	-58.5563	-25.4209	-144.694	-83.5999	-39.4078	-131.713	-102.968	-50.2022	-174.349	-61.0941	-8.83654	-169.861	-80.2666	-18.3741	-167.061	-105.048	-28.8299	-181.466	-22.5457	-10.6487	-198.021	2.13021	5.73371	-157.811	8.01569	-6.3089	
57	0.475	-150.248	35.1342	17.0191	-120.014	17.6341	9.51588	-116.205	-16.484	4.84037	-127.172	-36.6123	9.80227	-110.356	-6.43335	-39.0021	-89.2628	-18.3466	-45.6493	-66.645	-28.0556	-51.2193	-123.936	-29.4786	-41.4573	-104.216	-41.0686	-49.4577	-75.0864	-59.9595	-59.4497	-137.317	-40.9848	-31.0716	-122.408	-55.5809	-42.7212	-106.053	-70.3924	-50.724	-155.8	-50.1234	-8.85804	-144.733	-69.9217	-18.526	-135.664	-86.5943	-27.2678	-178.582	-14.0598	-7.58639	-198.102	4.11705	4.47024	-172.497	21.9506	-10.2484	
58	0.483333	-167.137	52.2176	10.4926	-134.003	42.289	0.319399	-116.878	16.6776	-3.99085	-120.803	-11.4718	2.53862	-123.874	21.9876	-47.0199	-99.4729	20.2286	-56.9641	-71.4878	17.7045	-66.6071	-125.77	-4.10827	-45.9224	-97.178	-8.42315	-60.3585	-68.8329	-13.1451	-72.1914	-132.933	-19.5044	-32.7042	-111.145	-29.203	-47.0133	-91.6324	-35.4357	-57.476	-140.788	-34.6344	-10.5419	-125.019	-45.1954	-20.3098	-106.766	-60.6303	-30.1239	-174.34	-6.08335	-11.6285	-200.171	-1.43328	8.38969	-184.615	24.416	-13.6119	
